<?xml version="1.0" encoding="utf-8"?>
<!-- Generator: Adobe Illustrator 26.0.1, SVG Export Plug-In . SVG Version: 6.00 Build 0)  -->
<svg version="1.1" id="Layer_1" xmlns="http://www.w3.org/2000/svg" xmlns:xlink="http://www.w3.org/1999/xlink" x="0px" y="0px"
	 viewBox="0 0 180.5 130.3" style="enable-background:new 0 0 180.5 130.3;" xml:space="preserve">
<g id="Layer_2_00000022537962836323787720000004053351974743946412_">
	<g id="Layer_1-2">
		<polygon points="0.6,0.2 90.4,101.7 123,101.7 31.8,0 		"/>
		<path d="M89.6,43.5h62.3c0,0,5.4,1.5,5.1-10.9c-0.2-9.2-8.2-8.2-8.2-8.2H71.4L50,0.2L81.2,0h66.6c0,0,32.7-1.6,32.7,32.7
			s-27.4,35.6-27.4,35.6h-10.7l30,33.4h-32.6L89.6,43.5z"/>
		<polygon points="36.9,60.5 52.9,78.5 33,101.3 0,101.3 		"/>
	</g>
</g>
<path d="M5.4,125.6v-4c0.7,0.6,1.5,1.1,2.4,1.4s1.7,0.5,2.6,0.5c0.5,0,1,0,1.3-0.1c0.4-0.1,0.7-0.2,1-0.4c0.3-0.2,0.4-0.4,0.6-0.6
	c0.1-0.2,0.2-0.5,0.2-0.7c0-0.4-0.1-0.7-0.3-0.9c-0.2-0.3-0.5-0.5-0.8-0.8s-0.8-0.5-1.2-0.7c-0.5-0.2-1-0.4-1.5-0.7
	c-1.4-0.6-2.5-1.3-3.1-2.1c-0.7-0.8-1-1.9-1-3.1c0-0.9,0.2-1.7,0.6-2.4c0.4-0.7,0.9-1.2,1.5-1.7c0.6-0.4,1.4-0.8,2.3-1
	s1.8-0.3,2.7-0.3s1.8,0.1,2.5,0.2s1.4,0.3,2,0.5v3.8c-0.3-0.2-0.6-0.4-1-0.6s-0.7-0.3-1.1-0.4s-0.8-0.2-1.1-0.2
	c-0.4-0.1-0.7-0.1-1.1-0.1c-0.5,0-0.9,0-1.3,0.1s-0.7,0.2-1,0.4c-0.3,0.2-0.5,0.3-0.6,0.6c-0.1,0.2-0.2,0.5-0.2,0.7
	c0,0.3,0.1,0.6,0.2,0.8c0.2,0.2,0.4,0.5,0.7,0.7s0.6,0.4,1.1,0.6c0.4,0.2,0.9,0.4,1.4,0.6c0.7,0.3,1.4,0.6,1.9,1
	c0.6,0.3,1.1,0.7,1.5,1.1s0.7,0.9,0.9,1.5c0.2,0.5,0.3,1.2,0.3,1.9c0,1-0.2,1.8-0.6,2.5s-0.9,1.2-1.6,1.7c-0.7,0.4-1.4,0.7-2.3,0.9
	c-0.9,0.2-1.8,0.3-2.7,0.3c-1,0-1.9-0.1-2.8-0.3C6.9,126.2,6.1,126,5.4,125.6z"/>
<path d="M55.2,111.6h-5.1v14.7H46v-14.7h-5.1v-3.3h14.3C55.2,108.3,55.2,111.6,55.2,111.6z"/>
<path d="M87,126.7c-2.6,0-4.7-0.8-6.3-2.5c-1.6-1.7-2.4-3.9-2.4-6.6c0-2.8,0.8-5.1,2.5-6.9c1.6-1.8,3.8-2.6,6.6-2.6
	c2.6,0,4.6,0.8,6.2,2.5s2.4,3.9,2.4,6.7c0,2.8-0.8,5.1-2.5,6.8C91.8,125.8,89.6,126.7,87,126.7z M87.2,111.5c-1.4,0-2.6,0.5-3.4,1.6
	s-1.3,2.5-1.3,4.2c0,1.8,0.4,3.2,1.3,4.2c0.8,1,1.9,1.6,3.3,1.6s2.5-0.5,3.3-1.5s1.2-2.4,1.2-4.2c0-1.9-0.4-3.3-1.2-4.4
	C89.6,112,88.6,111.5,87.2,111.5z"/>
<path d="M134.3,126.3h-4.7l-2.8-4.6c-0.2-0.4-0.4-0.7-0.6-0.9c-0.2-0.3-0.4-0.5-0.6-0.7c-0.2-0.2-0.4-0.3-0.6-0.5
	c-0.2-0.1-0.4-0.2-0.7-0.2h-1.1v6.9h-4.1v-18h6.4c4.4,0,6.6,1.6,6.6,4.9c0,0.6-0.1,1.2-0.3,1.7s-0.5,1-0.8,1.4
	c-0.4,0.4-0.8,0.8-1.3,1.1s-1.1,0.6-1.7,0.7l0,0c0.3,0.1,0.5,0.2,0.8,0.4c0.3,0.2,0.5,0.4,0.7,0.7s0.5,0.5,0.7,0.8s0.4,0.6,0.6,0.8
	L134.3,126.3z M123.3,111.4v5h1.8c0.9,0,1.6-0.3,2.1-0.8s0.8-1.1,0.8-1.9c0-1.6-0.9-2.4-2.8-2.4h-1.9V111.4z"/>
<path d="M168.2,126.3h-10.8v-18h10.4v3.3h-6.3v4h5.9v3.3h-5.9v4.1h6.7L168.2,126.3L168.2,126.3z"/>
</svg>
